<svg width="2362" height="1311" viewBox="0 0 2362 1311" fill="none" xmlns="http://www.w3.org/2000/svg">
	<path d="M2242.08 263.742C2242.08 313.723 2201.56 354.241 2151.58 354.241C2101.6 354.241 2061.08 313.723 2061.08 263.742C2061.08 213.761 2101.6 173.244 2151.58 173.244C2201.56 173.244 2242.08 213.761 2242.08 263.742ZM2108.18 263.742C2108.18 287.713 2127.61 307.146 2151.58 307.146C2175.55 307.146 2194.99 287.713 2194.99 263.742C2194.99 239.771 2175.55 220.339 2151.58 220.339C2127.61 220.339 2108.18 239.771 2108.18 263.742Z" fill="white" stroke="white" />
	<path d="M2150.04 350.114V595.348L2063.67 675.551V1038" stroke="white" stroke-width="18" />
	<path d="M0 0H299.216L495.095 186.625L657.042 337.775L1008.7 0H1312.54V657.006V1307.92H1008.7V496.947L657.042 825.083L299.216 496.947V1307.92H0V0Z" fill="white" />
	<path d="M2085.26 459.621C2085.26 510.73 2043.83 552.162 1992.72 552.162C1941.61 552.162 1900.18 510.73 1900.18 459.621C1900.18 408.512 1941.61 367.08 1992.72 367.08C2043.83 367.08 2085.26 408.512 2085.26 459.621ZM1949.09 459.621C1949.09 483.718 1968.62 503.252 1992.72 503.252C2016.82 503.252 2036.35 483.718 2036.35 459.621C2036.35 435.525 2016.82 415.991 1992.72 415.991C1968.62 415.991 1949.09 435.525 1949.09 459.621Z" fill="#FF7801" />
	<path d="M1992.72 545.993V880.3L2165.46 1058.05" stroke="#FF7801" stroke-width="14" />
	<path d="M2245.05 733.863C2245.05 764.365 2218.95 789.091 2186.75 789.091C2154.55 789.091 2128.45 764.365 2128.45 733.863C2128.45 703.362 2154.55 678.635 2186.75 678.635C2218.95 678.635 2245.05 703.362 2245.05 733.863ZM2159.26 733.863C2159.26 748.244 2171.57 759.902 2186.75 759.902C2201.93 759.902 2214.23 748.244 2214.23 733.863C2214.23 719.483 2201.93 707.825 2186.75 707.825C2171.57 707.825 2159.26 719.483 2159.26 733.863Z" fill="#FF7801" />
	<path d="M2185.08 782.78V982.636L2295.02 1091.99" stroke="#FF7801" stroke-width="8" />
	<path d="M1483.74 459.621C1484.95 416.856 1488.71 399.049 1489.91 356.284C1489.91 356.284 1535.48 223.367 1596.34 215.929V0H1307.92V657.006V1307.92L2361.34 1311V1139.8L2308.9 1087.36L2258.01 1036.46H2116.11H1863.16C1855.45 1036.46 1823.72 1051.88 1821.52 1053.43C1821.52 1053.43 1719.72 1102.01 1651.86 1122.83C1622 1132 1584.41 1123.25 1584 1122.83C1582.45 1121.29 1543.9 1112.04 1528.47 1061.14L1526.93 971.682L1519.22 953.174C1516.13 948.547 1500.71 934.666 1493 933.124C1485.29 931.581 1488.37 933.124 1480.66 930.039C1472.95 926.954 1470.03 922.925 1468.32 920.785C1457.75 907.538 1462.72 901.076 1475.91 883.921L1476.03 883.768C1482.2 872.972 1479.12 879.141 1485.29 868.345C1491.46 857.548 1481.17 847.359 1435.93 826.701C1423.59 820.532 1415.88 804.8 1425.13 792.769L1425.89 791.785C1440.69 772.553 1444.59 767.49 1445.79 746.161C1444.38 740.408 1444.61 739.848 1435.93 732.618C1387.61 713.784 1368.69 701.632 1358.81 687.889C1353.69 679.473 1351.49 667.839 1358.81 658.585C1366.13 649.331 1420.51 581.467 1420.51 581.467L1460.61 525.942C1460.61 525.942 1482.54 502.386 1483.74 459.621Z" fill="#FF7801" />
</svg>
